<svg height="511pt" viewBox="0 -17 511.99964 511" width="511pt" xmlns="http://www.w3.org/2000/svg"><path d="m44.546875 86.9375v306.539062h420.34375v-306.539062zm72.761719 94.988281c-18.78125 0-34.011719-15.226562-34.011719-34.011719 0-18.78125 15.230469-34.007812 34.011719-34.007812s34.011718 15.226562 34.011718 34.007812c-.003906 18.785157-15.230468 34.011719-34.011718 34.011719zm183.445312 89.785157c-18.78125 0-34.007812-15.226563-34.007812-34.007813 0-18.785156 15.226562-34.011719 34.007812-34.011719 18.785156 0 34.011719 15.226563 34.011719 34.011719 0 18.78125-15.226563 34.007813-34.011719 34.007813zm0-89.785157c-18.78125 0-34.007812-15.226562-34.007812-34.011719 0-18.78125 15.226562-34.007812 34.007812-34.007812 18.785156 0 34.011719 15.226562 34.011719 34.007812 0 18.785157-15.226563 34.011719-34.011719 34.011719zm91.058594 0c-18.78125 0-34.007812-15.226562-34.007812-34.011719 0-18.78125 15.226562-34.007812 34.007812-34.007812 18.785156 0 34.011719 15.226562 34.011719 34.007812 0 18.785157-15.226563 34.011719-34.011719 34.011719zm0 0" fill="#f288e8"/><path d="m400.804688 86.9375v28.179688c14.417968 3.945312 25.019531 17.128906 25.019531 32.796874 0 15.671876-10.601563 28.855469-25.019531 32.800782v176.433594c0 9.652343-7.824219 17.476562-17.476563 17.476562h-338.78125v18.851562h420.34375v-306.539062zm0 0" fill="#d866d3"/><path d="m90.109375 463.242188-27.175781-30.832032c-1.324219-1.5-2.058594-3.433594-2.058594-5.4375v-351.3125c0-4.542968-3.679688-8.226562-8.222656-8.226562h-13.125c-4.542969 0-8.226563 3.683594-8.226563 8.226562v351.3125c0 2.003906-.730469 3.933594-2.054687 5.4375l-27.175782 30.832032c-4.679687 5.3125-.910156 13.664062 6.171876 13.664062h75.695312c7.082031 0 10.851562-8.351562 6.171875-13.664062zm0 0" fill="#0086f4"/><path d="m90.109375 463.242188-27.175781-30.832032c-1.324219-1.503906-2.058594-3.4375-2.058594-5.4375v-351.3125c0-4.542968-3.679688-8.226562-8.222656-8.226562h-3.992188v378.722656c0 1 .363282 1.96875 1.027344 2.71875l12.664062 14.367188c4.679688 5.3125.90625 13.664062-6.171874 13.664062h27.757812c7.082031 0 10.851562-8.351562 6.171875-13.664062zm0 0" fill="#0064db"/><path d="m509.929688 463.242188-27.179688-30.832032c-1.320312-1.5-2.054688-3.433594-2.054688-5.4375v-351.3125c0-4.542968-3.679687-8.226562-8.222656-8.226562h-13.125c-4.542968 0-8.226562 3.683594-8.226562 8.226562v351.3125c0 2.003906-.730469 3.933594-2.054688 5.4375l-27.175781 30.832032c-4.683594 5.3125-.910156 13.664062 6.167969 13.664062h75.699218c7.082032 0 10.851563-8.351562 6.171876-13.664062zm0 0" fill="#0086f4"/><path d="m509.929688 463.242188-27.179688-30.832032c-1.320312-1.503906-2.054688-3.4375-2.054688-5.4375v-351.3125c0-4.542968-3.679687-8.226562-8.222656-8.226562h-3.992187v378.722656c0 1 .363281 1.96875 1.023437 2.71875l12.664063 14.367188c4.683593 5.3125.910156 13.664062-6.167969 13.664062h27.757812c7.082032 0 10.851563-8.351562 6.171876-13.664062zm0 0" fill="#0064db"/><path d="m151.320312 237.703125c0 18.78125-15.226562 34.007813-34.011718 34.007813-18.78125 0-34.011719-15.226563-34.011719-34.007813 0-18.785156 15.230469-34.011719 34.011719-34.011719 18.785156 0 34.011718 15.226563 34.011718 34.011719zm0 0" fill="#f96058"/><path d="m151.320312 327.488281c0 18.78125-15.226562 34.007813-34.011718 34.007813-18.78125 0-34.011719-15.226563-34.011719-34.007813 0-18.785156 15.230469-34.011719 34.011719-34.011719 18.785156 0 34.011718 15.226563 34.011718 34.011719zm0 0" fill="#ffdc13"/><path d="m242.375 147.914062c0 18.785157-15.226562 34.011719-34.011719 34.011719-18.78125 0-34.007812-15.226562-34.007812-34.011719 0-18.78125 15.226562-34.007812 34.007812-34.007812 18.785157 0 34.011719 15.226562 34.011719 34.007812zm0 0" fill="#ffdc13"/><path d="m242.375 237.703125c0 18.78125-15.226562 34.007813-34.011719 34.007813-18.78125 0-34.007812-15.226563-34.007812-34.007813 0-18.785156 15.226562-34.011719 34.007812-34.011719 18.785157 0 34.011719 15.226563 34.011719 34.011719zm0 0" fill="#f96058"/><path d="m242.375 327.488281c0 18.78125-15.226562 34.007813-34.011719 34.007813-18.78125 0-34.007812-15.226563-34.007812-34.007813 0-18.785156 15.226562-34.011719 34.007812-34.011719 18.785157 0 34.011719 15.226563 34.011719 34.011719zm0 0" fill="#f96058"/><path d="m334.765625 327.488281c0 18.78125-15.226563 34.007813-34.011719 34.007813-18.78125 0-34.007812-15.226563-34.007812-34.007813 0-18.785156 15.226562-34.011719 34.007812-34.011719 18.785156 0 34.011719 15.226563 34.011719 34.011719zm0 0" fill="#ffdc13"/><path d="m425.824219 237.703125c0 18.78125-15.226563 34.007813-34.011719 34.007813-18.78125 0-34.007812-15.226563-34.007812-34.007813 0-18.785156 15.226562-34.011719 34.007812-34.011719 18.785156 0 34.011719 15.226563 34.011719 34.011719zm0 0" fill="#fff"/><path d="m425.824219 327.488281c0 18.78125-15.226563 34.007813-34.011719 34.007813-18.78125 0-34.007812-15.226563-34.007812-34.007813 0-18.785156 15.226562-34.011719 34.007812-34.011719 18.785156 0 34.011719 15.226563 34.011719 34.011719zm0 0" fill="#f96058"/><path d="m425.824219 237.703125c0 18.78125-15.226563 34.007813-34.011719 34.007813-18.78125 0-34.007812-15.226563-34.007812-34.007813 0-18.785156 15.226562-34.011719 34.007812-34.011719 18.785156 0 34.011719 15.226563 34.011719 34.011719zm0 0" fill="#ffdc13"/><path d="m137.957031 210.683594c.550781 2.433594.851563 4.957031.851563 7.554687 0 18.785157-15.226563 34.011719-34.007813 34.011719-7.769531 0-14.925781-2.609375-20.648437-6.992188 3.433594 15.144532 16.96875 26.453126 33.15625 26.453126 18.78125 0 34.007812-15.226563 34.007812-34.007813 0-11.015625-5.238281-20.804687-13.359375-27.019531zm0 0" fill="#e94141"/><path d="m137.957031 300.46875c.550781 2.433594.851563 4.957031.851563 7.554688 0 18.785156-15.226563 34.011718-34.007813 34.011718-7.769531 0-14.925781-2.609375-20.648437-6.992187 3.433594 15.144531 16.96875 26.453125 33.15625 26.453125 18.78125 0 34.007812-15.226563 34.007812-34.007813 0-11.015625-5.238281-20.804687-13.359375-27.019531zm0 0" fill="#ffa511"/><path d="m229.015625 120.898438c.550781 2.429687.851563 4.957031.851563 7.554687 0 18.785156-15.226563 34.011719-34.011719 34.011719-7.765625 0-14.921875-2.609375-20.648438-6.992188 3.4375 15.144532 16.972657 26.453125 33.15625 26.453125 18.785157 0 34.011719-15.226562 34.011719-34.007812 0-11.015625-5.242188-20.804688-13.359375-27.019531zm0 0" fill="#ffa511"/><path d="m426.25 34.511719c0 18.78125-15.226562 34.007812-34.011719 34.007812-18.78125 0-34.007812-15.226562-34.007812-34.007812 0-18.785157 15.226562-34.011719 34.007812-34.011719 18.785157 0 34.011719 15.226562 34.011719 34.011719zm0 0" fill="#ffdc13"/><path d="m412.886719 7.492188c.554687 2.429687.855469 4.957031.855469 7.554687 0 18.78125-15.226563 34.011719-34.011719 34.011719-7.769531 0-14.921875-2.609375-20.648438-6.992188 3.4375 15.144532 16.972657 26.453125 33.15625 26.453125 18.785157 0 34.011719-15.226562 34.011719-34.007812 0-11.019531-5.242188-20.804688-13.363281-27.019531zm0 0" fill="#ffa511"/><path d="m229.015625 210.683594c.550781 2.433594.851563 4.957031.851563 7.554687 0 18.785157-15.226563 34.011719-34.011719 34.011719-7.765625 0-14.921875-2.609375-20.648438-6.992188 3.4375 15.144532 16.972657 26.453126 33.15625 26.453126 18.785157 0 34.011719-15.226563 34.011719-34.007813 0-11.015625-5.242188-20.804687-13.359375-27.019531zm0 0" fill="#e94141"/><path d="m335.191406 94.472656c0 18.785156-15.226562 34.011719-34.007812 34.011719-18.785156 0-34.011719-15.226563-34.011719-34.011719 0-18.78125 15.226563-34.007812 34.011719-34.007812 18.78125 0 34.007812 15.226562 34.007812 34.007812zm0 0" fill="#f96058"/><path d="m321.832031 67.457031c.550781 2.429688.851563 4.957031.851563 7.554688 0 18.78125-15.226563 34.007812-34.011719 34.007812-7.765625 0-14.921875-2.609375-20.648437-6.992187 3.4375 15.144531 16.972656 26.457031 33.160156 26.457031 18.78125 0 34.007812-15.226563 34.007812-34.011719 0-11.015625-5.242187-20.800781-13.359375-27.015625zm0 0" fill="#e94141"/><path d="m229.015625 300.46875c.550781 2.433594.851563 4.957031.851563 7.554688 0 18.785156-15.226563 34.011718-34.011719 34.011718-7.765625 0-14.921875-2.609375-20.648438-6.992187 3.4375 15.144531 16.972657 26.453125 33.15625 26.453125 18.785157 0 34.011719-15.226563 34.011719-34.007813 0-11.015625-5.242188-20.804687-13.359375-27.019531zm0 0" fill="#e94141"/><path d="m321.40625 300.46875c.550781 2.433594.851562 4.957031.851562 7.554688 0 18.785156-15.226562 34.011718-34.011718 34.011718-7.765625 0-14.921875-2.609375-20.648438-6.992187 3.4375 15.144531 16.972656 26.453125 33.15625 26.453125 18.785156 0 34.011719-15.226563 34.011719-34.007813 0-11.015625-5.242187-20.800781-13.359375-27.019531zm0 0" fill="#f3c10e"/><path d="m412.460938 300.46875c.554687 2.433594.855468 4.957031.855468 7.554688 0 18.785156-15.230468 34.011718-34.011718 34.011718-7.769532 0-14.921876-2.609375-20.648438-6.992187 3.4375 15.144531 16.972656 26.453125 33.15625 26.453125 18.785156 0 34.011719-15.226563 34.011719-34.007813 0-11.015625-5.242188-20.800781-13.363281-27.019531zm0 0" fill="#e94141"/><path d="m412.460938 210.683594c.554687 2.433594.855468 4.957031.855468 7.554687 0 18.785157-15.230468 34.011719-34.011718 34.011719-7.769532 0-14.921876-2.609375-20.648438-6.992188 3.4375 15.144532 16.972656 26.453126 33.15625 26.453126 18.785156 0 34.011719-15.226563 34.011719-34.007813 0-11.015625-5.242188-20.804687-13.363281-27.019531zm0 0" fill="#ffa511"/><path d="m400.804688 294.6875v65.597656c14.417968-3.941406 25.019531-17.128906 25.019531-32.796875s-10.601563-28.855469-25.019531-32.800781zm0 0" fill="#e94141"/><path d="m400.804688 204.902344v65.597656c14.417968-3.941406 25.019531-17.128906 25.019531-32.796875 0-15.671875-10.601563-28.855469-25.019531-32.800781zm0 0" fill="#ffa511"/><path d="m412.460938 300.46875c.554687 2.433594.855468 4.957031.855468 7.554688 0 10.628906-4.875 20.113281-12.511718 26.347656v25.914062c14.417968-3.941406 25.019531-17.128906 25.019531-32.796875 0-11.015625-5.242188-20.800781-13.363281-27.019531zm0 0" fill="#dd3636"/><path d="m425.824219 237.703125c0-11.015625-5.242188-20.804687-13.363281-27.019531.554687 2.433594.855468 4.957031.855468 7.554687 0 10.628907-4.875 20.113281-12.511718 26.347657v25.914062c14.417968-3.941406 25.019531-17.128906 25.019531-32.796875zm0 0" fill="#f48500"/></svg>